<?xml version="1.0" encoding="utf-8"?>
<svg xmlns="http://www.w3.org/2000/svg" xmlns:xlink="http://www.w3.org/1999/xlink" style="margin: auto; background: none; display: block; shape-rendering: auto;" width="201px" height="201px" viewBox="0 0 100 100" preserveAspectRatio="xMidYMid">
<g transform="translate(50 50)">
<g>
<animateTransform attributeName="transform" type="rotate" values="0;40" keyTimes="0;1" dur="0.24154589371980678s" repeatCount="indefinite"></animateTransform><path d="M29.393876913398135 -6 L36.39387691339813 -6 L36.39387691339813 6 L29.393876913398135 6 A30 30 0 0 1 26.373741729351096 14.297753221869671 L26.373741729351096 14.297753221869671 L31.736052831183944 18.797266489675444 L24.022601514945475 27.989799807103182 L18.660290413112627 23.490286539297408 A30 30 0 0 1 11.013039678650895 27.905428809399453 L11.013039678650895 27.905428809399453 L12.228576922319407 34.799083080484905 L0.4108838861729064 36.88286121248807 L-0.8046533574956066 29.989206941402617 A30 30 0 0 1 -9.500786033992428 28.455844122715714 L-9.500786033992428 28.455844122715714 L-13.000786033992426 34.51802194920678 L-23.393090879405698 28.518021949206783 L-19.893090879405698 22.45584412271571 A30 30 0 0 1 -25.569088371855486 15.691453719532952 L-25.569088371855486 15.691453719532952 L-32.146936717356844 18.085594722812633 L-36.25117843726487 6.80928327338173 L-29.673330091763514 4.415142270102048 A30 30 0 0 1 -29.673330091763514 -4.415142270102041 L-29.673330091763514 -4.415142270102041 L-36.25117843726487 -6.8092832733817215 L-32.14693671735685 -18.085594722812626 L-25.569088371855493 -15.691453719532944 A30 30 0 0 1 -19.89309087940571 -22.4558441227157 L-19.89309087940571 -22.4558441227157 L-23.393090879405715 -28.51802194920677 L-13.00078603399245 -34.518021949206776 L-9.500786033992448 -28.455844122715707 A30 30 0 0 1 -0.8046533574956207 -29.989206941402617 L-0.8046533574956207 -29.989206941402617 L0.41088388617288896 -36.88286121248807 L12.228576922319391 -34.79908308048492 L11.013039678650882 -27.90542880939946 A30 30 0 0 1 18.660290413112616 -23.49028653929742 L18.660290413112616 -23.49028653929742 L24.02260151494546 -27.989799807103196 L31.736052831183937 -18.797266489675454 L26.373741729351092 -14.297753221869678 A30 30 0 0 1 29.393876913398135 -6.00000000000001 M0 -22A22 22 0 1 0 0 22 A22 22 0 1 0 0 -22" fill="#85a2b6"></path></g></g>
<!-- [ldio] generated by https://loading.io/ --></svg>