<svg id="Capa_1" enable-background="new 0 0 512 512" height="512" viewBox="0 0 512 512" width="512" fill="#85a2b6" xmlns="http://www.w3.org/2000/svg"><g><path d="m218 190.175c3.587-2.071 4.816-6.658 2.745-10.245s-6.658-4.816-10.245-2.745-4.816 6.658-2.745 10.245 6.658 4.816 10.245 2.745z"/><path d="m179.937 220.738c3.587 2.071 8.174.842 10.245-2.745s.842-8.174-2.745-10.245-8.174-.842-10.245 2.745-.842 8.174 2.745 10.245z"/><circle cx="172.5" cy="255.993" r="7.5"/><path d="m187.437 304.238c3.587-2.071 4.816-6.658 2.745-10.245s-6.658-4.816-10.245-2.745-4.816 6.658-2.745 10.245 6.658 4.817 10.245 2.745z"/><path d="m210.5 334.802c3.587 2.071 8.174.842 10.245-2.745s.842-8.174-2.745-10.245-8.174-.842-10.245 2.745-.842 8.173 2.745 10.245z"/><circle cx="256" cy="339.493" r="7.5"/><path d="m294 321.811c-3.587 2.071-4.816 6.658-2.745 10.245s6.658 4.816 10.245 2.745 4.816-6.658 2.745-10.245-6.658-4.816-10.245-2.745z"/><path d="m332.063 291.248c-3.587-2.071-8.174-.842-10.245 2.745s-.842 8.174 2.745 10.245 8.174.842 10.245-2.745.842-8.174-2.745-10.245z"/><path d="m332.063 220.738c3.587-2.071 4.816-6.658 2.745-10.245s-6.658-4.816-10.245-2.745-4.816 6.658-2.745 10.245 6.658 4.817 10.245 2.745z"/><path d="m294 190.175c3.587 2.071 8.174.842 10.245-2.745s.842-8.174-2.745-10.245-8.174-.842-10.245 2.745-.842 8.174 2.745 10.245z"/><path d="m509.1 217.371c-.489-3.23-3.012-5.771-6.238-6.285l-42.233-6.712c-5.005-19.915-12.875-38.897-23.448-56.561l25.111-34.603c1.917-2.643 1.905-6.223-.031-8.852-15.372-20.875-33.75-39.254-54.625-54.625-2.63-1.936-6.209-1.947-8.852-.031l-34.604 25.11c-17.664-10.573-36.646-18.442-56.56-23.447l-6.712-42.234c-.513-3.226-3.055-5.75-6.285-6.238-25.424-3.848-51.821-3.848-77.245 0-3.229.489-5.771 3.012-6.285 6.238l-6.712 42.234c-19.914 5.005-38.896 12.875-56.56 23.447l-34.604-25.11c-2.643-1.918-6.222-1.905-8.852.031-20.875 15.372-39.254 33.75-54.625 54.625-1.936 2.629-1.948 6.209-.031 8.852l25.111 34.603c-10.573 17.663-18.442 36.646-23.448 56.561l-42.233 6.712c-3.226.513-5.749 3.055-6.238 6.285-1.925 12.71-2.901 25.705-2.901 38.622s.976 25.912 2.9 38.623c.489 3.23 3.012 5.771 6.238 6.285l42.233 6.712c5.005 19.914 12.875 38.897 23.448 56.56l-25.111 34.604c-1.917 2.643-1.905 6.223.031 8.852 15.371 20.874 33.75 39.252 54.625 54.625 2.629 1.937 6.21 1.948 8.852.031l34.604-25.111c17.664 10.573 36.647 18.442 56.56 23.448l6.712 42.233c.513 3.226 3.055 5.749 6.285 6.238 12.71 1.924 25.705 2.9 38.623 2.9s25.912-.976 38.623-2.9c3.23-.489 5.771-3.012 6.285-6.238l6.712-42.233c19.913-5.005 38.896-12.875 56.56-23.448l34.604 25.111c2.642 1.917 6.222 1.905 8.852-.031 20.876-15.373 39.254-33.751 54.625-54.625 1.936-2.629 1.948-6.209.031-8.852l-25.111-34.604c10.573-17.663 18.442-36.646 23.448-56.56l42.233-6.712c3.226-.513 5.75-3.055 6.238-6.285 1.924-12.711 2.9-25.706 2.9-38.623s-.976-25.912-2.9-38.622zm-14.075 69.587-41.705 6.628c-3.031.482-5.463 2.762-6.139 5.756-4.901 21.712-13.433 42.292-25.358 61.17-1.639 2.595-1.532 5.926.271 8.41l24.799 34.174c-12.671 16.422-27.367 31.117-43.79 43.79l-34.174-24.799c-2.484-1.802-5.815-1.909-8.41-.271-18.879 11.925-39.46 20.457-61.17 25.358-2.994.676-5.274 3.107-5.756 6.139l-6.628 41.705c-20.467 2.622-41.462 2.622-61.929 0l-6.628-41.705c-.482-3.031-2.762-5.463-5.756-6.139-21.71-4.901-42.292-13.433-61.17-25.358-2.595-1.64-5.927-1.532-8.41.271l-34.174 24.799c-16.423-12.672-31.119-27.368-43.79-43.79l24.799-34.174c1.802-2.484 1.91-5.815.271-8.41-11.925-18.878-20.457-39.458-25.358-61.17-.676-2.994-3.107-5.274-6.139-5.756l-41.705-6.628c-1.312-10.234-1.976-20.625-1.976-30.965s.664-20.731 1.975-30.964l41.705-6.629c3.031-.482 5.463-2.762 6.139-5.756 4.901-21.712 13.433-42.293 25.358-61.171 1.639-2.595 1.532-5.926-.271-8.41l-24.799-34.173c12.671-16.422 27.367-31.118 43.79-43.79l34.174 24.799c2.484 1.803 5.816 1.909 8.41.271 18.878-11.925 39.459-20.457 61.17-25.358 2.994-.676 5.274-3.107 5.756-6.139l6.628-41.706c20.469-2.621 41.46-2.621 61.929 0l6.628 41.706c.482 3.031 2.762 5.463 5.756 6.139 21.711 4.901 42.292 13.433 61.17 25.358 2.594 1.64 5.926 1.532 8.41-.271l34.176-24.799c16.422 12.671 31.118 27.367 43.79 43.79l-24.799 34.174c-1.802 2.484-1.91 5.815-.271 8.41 11.925 18.878 20.457 39.458 25.358 61.171.676 2.994 3.107 5.274 6.139 5.756l41.705 6.628c1.311 10.233 1.975 20.625 1.975 30.964-.001 10.34-.665 20.731-1.976 30.965z"/><path d="m256 74.993c-42.554 0-83.907 15.071-116.439 42.436-3.17 2.667-3.578 7.397-.912 10.567s7.398 3.578 10.567.912c29.834-25.095 67.757-38.915 106.784-38.915 91.533 0 166 74.467 166 166s-74.467 166-166 166-166-74.467-166-166c0-39.027 13.82-76.95 38.915-106.784 2.666-3.17 2.258-7.901-.912-10.567-3.17-2.667-7.902-2.258-10.567.912-27.365 32.532-42.436 73.885-42.436 116.439 0 99.804 81.196 181 181 181s181-81.196 181-181-81.196-181-181-181z"/><path d="m256 376.993c66.72 0 121-54.28 121-121s-54.28-121-121-121-121 54.28-121 121 54.28 121 121 121zm0-227c58.449 0 106 47.551 106 106s-47.551 106-106 106-106-47.551-106-106 47.551-106 106-106z"/><path d="m241 263.493h7.5v7.5c0 4.142 3.358 7.5 7.5 7.5s7.5-3.358 7.5-7.5v-7.5h76c4.142 0 7.5-3.358 7.5-7.5s-3.358-7.5-7.5-7.5h-76v-76c0-4.142-3.358-7.5-7.5-7.5s-7.5 3.358-7.5 7.5v76h-7.5c-4.142 0-7.5 3.358-7.5 7.5s3.358 7.5 7.5 7.5z"/></g></svg>